<?xml version="1.0" encoding="UTF-8"?>
<!DOCTYPE svg PUBLIC "-//W3C//DTD SVG 1.1//EN" "http://www.w3.org/Graphics/SVG/1.1/DTD/svg11.dtd">
<!-- Creator: CorelDRAW X6 -->
<svg xmlns="http://www.w3.org/2000/svg" xml:space="preserve" width="4.26967in" height="2.07369in" version="1.1" style="shape-rendering:geometricPrecision; text-rendering:geometricPrecision; image-rendering:optimizeQuality; fill-rule:evenodd; clip-rule:evenodd"
viewBox="0 0 1580 767"
 xmlns:xlink="http://www.w3.org/1999/xlink">
 <defs>
  <style type="text/css">
   <![CDATA[
    .str0 {stroke:#4B4B4D;stroke-width:1.11028}
    .str1 {stroke:#4B4B4D;stroke-width:2.57026}
    .fil1 {fill:none}
    .fil0 {fill:#2B3045}
   ]]>
  </style>
 </defs>
 <g id="Layer_x0020_1">
  <metadata id="CorelCorpID_0Corel-Layer"/>
  <g id="_528881232">
   <rect class="fil0 str0" x="1" y="1" width="1579" height="765"/>
   <g>
    <line class="fil1 str1" x1="1" y1="384" x2="1580" y2= "384" />
    <line class="fil1 str1" x1="1" y1="347" x2="1580" y2= "347" />
    <line class="fil1 str1" x1="1" y1="310" x2="1580" y2= "310" />
    <line class="fil1 str1" x1="1" y1="273" x2="1580" y2= "273" />
    <line class="fil1 str1" x1="1" y1="236" x2="1580" y2= "236" />
    <line class="fil1 str1" x1="1" y1="199" x2="1580" y2= "199" />
    <line class="fil1 str1" x1="1" y1="162" x2="1580" y2= "162" />
    <line class="fil1 str1" x1="1" y1="125" x2="1580" y2= "125" />
    <line class="fil1 str1" x1="1" y1="88" x2="1580" y2= "88" />
    <line class="fil1 str1" x1="1" y1="51" x2="1580" y2= "51" />
    <line class="fil1 str1" x1="1" y1="421" x2="1580" y2= "421" />
    <line class="fil1 str1" x1="1" y1="458" x2="1580" y2= "458" />
    <line class="fil1 str1" x1="1" y1="495" x2="1580" y2= "495" />
    <line class="fil1 str1" x1="1" y1="532" x2="1580" y2= "532" />
    <line class="fil1 str1" x1="1" y1="569" x2="1580" y2= "569" />
    <line class="fil1 str1" x1="1" y1="606" x2="1580" y2= "606" />
    <line class="fil1 str1" x1="1" y1="643" x2="1580" y2= "643" />
    <line class="fil1 str1" x1="1" y1="680" x2="1580" y2= "680" />
    <line class="fil1 str1" x1="1" y1="717" x2="1580" y2= "717" />
    <line class="fil1 str1" x1="1" y1="766" x2="1580" y2= "766" />
    <line class="fil1 str1" x1="1" y1="1" x2="1580" y2= "1" />
   </g>
   <g>
    <line class="fil1 str1" x1="29" y1="1" x2="29" y2= "766" />
    <line class="fil1 str1" x1="65" y1="1" x2="65" y2= "766" />
    <line class="fil1 str1" x1="102" y1="1" x2="102" y2= "766" />
    <line class="fil1 str1" x1="138" y1="1" x2="138" y2= "766" />
    <line class="fil1 str1" x1="174" y1="1" x2="174" y2= "766" />
    <line class="fil1 str1" x1="210" y1="1" x2="210" y2= "766" />
    <line class="fil1 str1" x1="247" y1="1" x2="247" y2= "766" />
    <line class="fil1 str1" x1="283" y1="1" x2="283" y2= "766" />
    <line class="fil1 str1" x1="319" y1="1" x2="319" y2= "766" />
    <line class="fil1 str1" x1="355" y1="1" x2="355" y2= "766" />
    <line class="fil1 str1" x1="392" y1="1" x2="392" y2= "766" />
    <line class="fil1 str1" x1="428" y1="1" x2="428" y2= "766" />
    <line class="fil1 str1" x1="464" y1="1" x2="464" y2= "766" />
    <line class="fil1 str1" x1="500" y1="1" x2="500" y2= "766" />
    <line class="fil1 str1" x1="536" y1="1" x2="536" y2= "766" />
    <line class="fil1 str1" x1="573" y1="1" x2="573" y2= "766" />
    <line class="fil1 str1" x1="609" y1="1" x2="609" y2= "766" />
    <line class="fil1 str1" x1="645" y1="1" x2="645" y2= "766" />
    <line class="fil1 str1" x1="681" y1="1" x2="681" y2= "766" />
    <line class="fil1 str1" x1="718" y1="1" x2="718" y2= "766" />
    <line class="fil1 str1" x1="754" y1="1" x2="754" y2= "766" />
    <line class="fil1 str1" x1="790" y1="1" x2="790" y2= "766" />
    <line class="fil1 str1" x1="826" y1="1" x2="826" y2= "766" />
    <line class="fil1 str1" x1="863" y1="1" x2="863" y2= "766" />
    <line class="fil1 str1" x1="899" y1="1" x2="899" y2= "766" />
    <line class="fil1 str1" x1="935" y1="1" x2="935" y2= "766" />
    <line class="fil1 str1" x1="971" y1="1" x2="971" y2= "766" />
    <line class="fil1 str1" x1="1007" y1="1" x2="1007" y2= "766" />
    <line class="fil1 str1" x1="1044" y1="1" x2="1044" y2= "766" />
    <line class="fil1 str1" x1="1080" y1="1" x2="1080" y2= "766" />
    <line class="fil1 str1" x1="1116" y1="1" x2="1116" y2= "766" />
    <line class="fil1 str1" x1="1152" y1="1" x2="1152" y2= "766" />
    <line class="fil1 str1" x1="1189" y1="1" x2="1189" y2= "766" />
    <line class="fil1 str1" x1="1225" y1="1" x2="1225" y2= "766" />
    <line class="fil1 str1" x1="1261" y1="1" x2="1261" y2= "766" />
    <line class="fil1 str1" x1="1297" y1="1" x2="1297" y2= "766" />
    <line class="fil1 str1" x1="1334" y1="1" x2="1334" y2= "766" />
    <line class="fil1 str1" x1="1370" y1="1" x2="1370" y2= "766" />
    <line class="fil1 str1" x1="1406" y1="1" x2="1406" y2= "766" />
    <line class="fil1 str1" x1="1442" y1="1" x2="1442" y2= "766" />
    <line class="fil1 str1" x1="1479" y1="1" x2="1479" y2= "766" />
    <line class="fil1 str1" x1="1515" y1="1" x2="1515" y2= "766" />
    <line class="fil1 str1" x1="1551" y1="1" x2="1551" y2= "766" />
   </g>
  </g>
 </g>
</svg>
